<svg xmlns="http://www.w3.org/2000/svg" width="33.833" height="33.833" viewBox="0 0 33.833 33.833">
  <g id="右上角用户" transform="translate(-1595.333 -35.333)">
    <circle id="u_1683874951_2249604161_fm_26_gp_0" data-name="u=1683874951,2249604161&amp;fm=26&amp;gp=0" cx="16.917" cy="16.917" r="16.917" transform="translate(1595.333 35.333)" fill="#fff"/>
    <path id="路径_44" data-name="路径 44" d="M633.582,180.557h-3.569c-3.359,0-6.013,0-6.013-1.682v-.346a5.932,5.932,0,0,1,6.013-5.835h3.569a5.933,5.933,0,0,1,6.014,5.835v.346c0,1.682-2.787,1.682-6.014,1.682Zm-1.963-8.309a4.626,4.626,0,1,1,4.763-4.624,4.7,4.7,0,0,1-4.763,4.624Zm0,0" transform="translate(980.508 -120.603)" fill="#0270c1"/>
  </g>
</svg>
