<svg xmlns="http://www.w3.org/2000/svg" width="23.744" height="16.1" viewBox="0 0 23.744 16.1">
  <path id="底部信箱" d="M22.367,13.742l-6.205-5.6L22.367,2.7V13.742Zm-19.625.784,6.036-5.36.989.869a3.117,3.117,0,0,0,2.115.761A3.1,3.1,0,0,0,14,10.035l.989-.869,6.036,5.36ZM1.4,13.742V2.7L7.6,8.145,1.4,13.742ZM21.208,1.554,13.394,8.484a2.937,2.937,0,0,1-1.513.91,2.937,2.937,0,0,1-1.513-.91L2.551,1.554ZM21.758,0H1.987A1.991,1.991,0,0,0,0,1.989V14.113A1.988,1.988,0,0,0,1.987,16.1H21.758a1.985,1.985,0,0,0,1.986-1.987V1.989A1.987,1.987,0,0,0,21.758,0Z" fill="#fff" opacity="0.7"/>
</svg>
