<svg xmlns="http://www.w3.org/2000/svg" width="23.472" height="23.472" viewBox="0 0 23.472 23.472">
  <path id="搜索" d="M23.152,21.581l-4.19-4.225A10.969,10.969,0,0,0,21.1,10.837,10.694,10.694,0,0,0,10.549,0,10.7,10.7,0,0,0,0,10.837,10.7,10.7,0,0,0,10.548,21.675a10.344,10.344,0,0,0,6.99-2.734l4.2,4.231a.987.987,0,0,0,1.455-.04,1.149,1.149,0,0,0-.037-1.551Zm-12.6-1.818a8.809,8.809,0,0,1-8.689-8.925,8.809,8.809,0,0,1,8.688-8.925,8.809,8.809,0,0,1,8.688,8.925,8.809,8.809,0,0,1-8.688,8.925Z" fill="#fff"/>
</svg>
