<svg xmlns="http://www.w3.org/2000/svg" width="23.287" height="23.306" viewBox="0 0 23.287 23.306">
  <g id="日程管理" transform="translate(-63.999 -63.637)">
    <path id="路径_462" data-name="路径 462" d="M85.624,85.28H65.663V68.635H67.33v.011a1.663,1.663,0,0,0,1.663,1.663h13.3a1.663,1.663,0,0,0,1.663-1.663v-.011h1.667ZM68.993,65.3h13.3v3.334h-13.3Zm16.63,1.671H83.957V65.3a1.663,1.663,0,0,0-1.663-1.663h-13.3A1.663,1.663,0,0,0,67.33,65.3v1.671H65.663A1.663,1.663,0,0,0,64,68.634V85.28a1.663,1.663,0,0,0,1.663,1.663H85.624a1.663,1.663,0,0,0,1.663-1.663V68.635a1.663,1.663,0,0,0-1.663-1.663Z" transform="translate(0 0)" fill="#999"/>
    <path id="路径_463" data-name="路径 463" d="M239.9,405.547a2.434,2.434,0,0,1,1.87.685,2.32,2.32,0,0,1,.64,1.641,2.083,2.083,0,0,1-.408,1.255,2.346,2.346,0,0,1-1.121.822,1.959,1.959,0,0,1,1.1,1.766,2.749,2.749,0,0,1-.7,1.815,3.081,3.081,0,0,1-2.467,1.133,2.715,2.715,0,0,1-1.867-.649,2.852,2.852,0,0,1-.893-1.837l1.675-.2a1.779,1.779,0,0,0,.375.987.971.971,0,0,0,.722.274,1.326,1.326,0,0,0,.99-.4,1.411,1.411,0,0,0,.393-1.03,1.177,1.177,0,0,0-.317-.868,1.146,1.146,0,0,0-.853-.32,1.663,1.663,0,0,0-.28.024l.3-1.456a1.3,1.3,0,0,0,.176.012,1.467,1.467,0,0,0,1.066-.357,1.285,1.285,0,0,0,.365-.965.927.927,0,0,0-.247-.682.873.873,0,0,0-.649-.25.97.97,0,0,0-.676.277,1.971,1.971,0,0,0-.475.947l-1.6-.317a3.539,3.539,0,0,1,.847-1.517A2.805,2.805,0,0,1,239.9,405.547Zm7.108,0a2.278,2.278,0,0,1,1.782.786,3.337,3.337,0,0,1,.7,2.284,9.171,9.171,0,0,1-.508,2.9,5.559,5.559,0,0,1-1.374,2.339,2.774,2.774,0,0,1-1.949.813,2.3,2.3,0,0,1-1.788-.786,3.3,3.3,0,0,1-.7-2.272,8.665,8.665,0,0,1,.457-2.728,5.959,5.959,0,0,1,1.438-2.51,2.786,2.786,0,0,1,1.949-.822Zm-.061,1.4a1.042,1.042,0,0,0-.822.445,5.849,5.849,0,0,0-.914,2.272,10.533,10.533,0,0,0-.329,2.3,1.667,1.667,0,0,0,.232,1.011.727.727,0,0,0,.6.293,1.111,1.111,0,0,0,.865-.451,6,6,0,0,0,.9-2.376,11,11,0,0,0,.311-2.229,1.565,1.565,0,0,0-.235-.966.733.733,0,0,0-.6-.3Z" transform="translate(-167.581 -333.024)" fill="#999"/>
  </g>
</svg>
