<svg xmlns="http://www.w3.org/2000/svg" width="21.158" height="24.684" viewBox="0 0 21.158 24.684">
  <path id="个人信息" d="M83.722,12.879a6.394,6.394,0,0,1-6.347-6.44,6.348,6.348,0,1,1,12.695,0A6.4,6.4,0,0,1,83.722,12.879Zm0-2.147A4.294,4.294,0,1,0,79.49,6.439,4.263,4.263,0,0,0,83.722,10.732Zm0,3.22A10.656,10.656,0,0,1,94.3,24.684H73.143A10.657,10.657,0,0,1,83.722,13.952Zm0,2.147a8.491,8.491,0,0,0-8.2,6.439H91.919A8.491,8.491,0,0,0,83.722,16.1Z" transform="translate(-73.143)" fill="#999"/>
</svg>
