<svg xmlns="http://www.w3.org/2000/svg" width="23.137" height="26.992" viewBox="0 0 23.137 26.992">
  <path id="我的办事" d="M147.381,64.1a.966.966,0,0,1,.965.953v2.9h1.925a.962.962,0,0,1,.962.965v.965H128.1V66.025a1.925,1.925,0,0,1,1.919-1.925Zm-.965,1.928H130.984a.965.965,0,0,0,0,1.931h15.431ZM128.1,69.883h23.137v19.29a1.927,1.927,0,0,1-1.934,1.919H130.034a1.926,1.926,0,0,1-1.934-1.919Zm1.928,0V88.208a.964.964,0,0,0,.956.956h17.368a.964.964,0,0,0,.956-.956V69.883ZM144.352,76.6H133.823a.949.949,0,0,1,0-1.892h10.529a.949.949,0,0,1,0,1.892Zm-4.613,3.856h-5.853a.944.944,0,0,1,0-1.889h5.85a.944.944,0,0,1,0,1.889Zm0,0" transform="translate(-128.1 -64.1)" fill="#999"/>
</svg>
