<svg xmlns="http://www.w3.org/2000/svg" width="26.768" height="26.768" viewBox="0 0 26.768 26.768">
  <g id="数据驾驶舱" transform="translate(-6.901 -8)">
    <path id="路径_404" data-name="路径 404" d="M487.762,34.768a.663.663,0,0,1-.662-.662V8.662a.662.662,0,0,1,1.325,0V34.106A.663.663,0,0,1,487.762,34.768Z" transform="translate(-467.478 0)" fill="#999"/>
    <path id="路径_405" data-name="路径 405" d="M166.2,167.87a.66.66,0,0,1-.469-.193l-17.991-17.994a.663.663,0,0,1,.938-.938l17.991,17.991a.665.665,0,0,1-.469,1.134Z" transform="translate(-136.924 -136.826)" fill="#999"/>
    <path id="路径_406" data-name="路径 406" d="M33.006,489.525H7.562a.662.662,0,0,1,0-1.325H33.006a.662.662,0,0,1,0,1.325Z" transform="translate(0 -467.478)" fill="#999"/>
    <path id="路径_407" data-name="路径 407" d="M148.114,167.967a.662.662,0,0,1-.469-1.131l17.994-17.991a.663.663,0,1,1,.938.938l-17.994,17.991A.671.671,0,0,1,148.114,167.967Z" transform="translate(-136.826 -136.924)" fill="#999"/>
    <path id="路径_408" data-name="路径 408" d="M150.053,141.3a9.853,9.853,0,1,0,9.853,9.853A9.852,9.852,0,0,0,150.053,141.3Zm0,17.1a7.25,7.25,0,1,1,7.251-7.248A7.251,7.251,0,0,1,150.053,158.4Z" transform="translate(-129.769 -129.769)" fill="#999"/>
    <path id="路径_409" data-name="路径 409" d="M135.45,146.8a10.221,10.221,0,1,1,3.99-.805A10.177,10.177,0,0,1,135.45,146.8Zm0-19.705a9.452,9.452,0,1,0,6.687,2.768A9.4,9.4,0,0,0,135.45,127.095Zm0,17.1a7.643,7.643,0,1,1,5.407-2.239A7.6,7.6,0,0,1,135.45,144.2Zm0-14.5a6.856,6.856,0,1,0,4.846,2.008A6.805,6.805,0,0,0,135.45,129.7Z" transform="translate(-115.166 -115.166)" fill="#999"/>
    <path id="路径_410" data-name="路径 410" d="M435.874,436.974m-2.074,0a2.074,2.074,0,1,0,2.074-2.074A2.074,2.074,0,0,0,433.8,436.974Z" transform="translate(-415.59 -415.59)" fill="#999"/>
    <path id="路径_411" data-name="路径 411" d="M421.272,424.844a2.472,2.472,0,1,1,2.472-2.472A2.476,2.476,0,0,1,421.272,424.844Zm0-4.149a1.677,1.677,0,1,0,1.677,1.677A1.679,1.679,0,0,0,421.272,420.695Z" transform="translate(-400.988 -400.988)" fill="#999"/>
  </g>
</svg>
