<svg xmlns="http://www.w3.org/2000/svg" width="27.494" height="27.5" viewBox="0 0 27.494 27.5">
  <path id="日程管理" d="M24.2,5.384h2.533a3.978,3.978,0,0,1,3.978,3.983V26.73a3.981,3.981,0,0,1-3.978,3.983H7.191A3.978,3.978,0,0,1,3.213,26.73V9.367A3.981,3.981,0,0,1,7.191,5.384H9.725V4.3a1.085,1.085,0,1,1,2.17,0V5.384h10.13V4.3a1.085,1.085,0,0,1,2.17,0Zm0,2.17V8.64a1.085,1.085,0,0,1-2.17,0V7.554H11.895V8.64a1.085,1.085,0,0,1-2.17,0V7.554H7.191A1.811,1.811,0,0,0,5.384,9.367V26.73a1.809,1.809,0,0,0,1.8,1.813H26.728a1.811,1.811,0,0,0,1.808-1.813V9.367a1.809,1.809,0,0,0-1.8-1.813H24.2Zm-.363,7.6a1.085,1.085,0,1,1,0,2.17H10.087a1.085,1.085,0,0,1,0-2.17Zm-4.341,5.426a1.085,1.085,0,1,1,0,2.17h-9.4a1.085,1.085,0,0,1,0-2.17Z" transform="translate(-3.213 -3.214)" fill="#999"/>
</svg>
