<svg xmlns="http://www.w3.org/2000/svg" width="22.805" height="22.805" viewBox="0 0 22.805 22.805">
  <g id="最新信息" transform="translate(-3.584 -3.584)">
    <path id="路径_414" data-name="路径 414" d="M281.217,411.82a1.487,1.487,0,0,0,1.665-1.665v-2.986a1.665,1.665,0,0,0-3.33,0v2.986A1.487,1.487,0,0,0,281.217,411.82Zm6.614,0a1.487,1.487,0,0,0,1.665-1.665v-2.986a1.665,1.665,0,0,0-3.33,0v2.986A1.487,1.487,0,0,0,287.831,411.82Z" transform="translate(-269.779 -392.906)" fill="#999"/>
    <path id="路径_415" data-name="路径 415" d="M23.208,22.886a11.4,11.4,0,0,0-8.222-19.3,11.428,11.428,0,0,0-11.4,11.4,11.416,11.416,0,0,0,11.4,11.4h8.176a1.2,1.2,0,0,0,.919-1.964ZM14.986,5.571a9.421,9.421,0,0,1,6.8,15.938,2.642,2.642,0,0,0-.4,2.894h-6.4a9.416,9.416,0,0,1,0-18.832Z" transform="translate(0 0)" fill="#999"/>
  </g>
</svg>
