<svg xmlns="http://www.w3.org/2000/svg" width="28.977" height="27.677" viewBox="0 0 28.977 27.677">
  <path id="信息资源共享交换" d="M64.231,92.369h2.64a8.085,8.085,0,0,1,3.158-6.5,7.806,7.806,0,0,1,5.643-1.535v3.221c-.073,0-.14,0-.208,0-.553.024-1.11.012-1.656.083A4.15,4.15,0,0,0,71.58,88.7a4.78,4.78,0,0,0-1.54,2.662c-.068.32-.087.65-.13.993H72.3l-4.039,4.72-4.028-4.707Zm13.5,19.292a1.516,1.516,0,0,1-.944.292q-5.1,0-10.2,0a1.458,1.458,0,0,1-1.5-1.12,1.68,1.68,0,0,1-.053-.441q0-4.532,0-9.064a1.469,1.469,0,0,1,1.124-1.513,1.905,1.905,0,0,1,.489-.054q2.518,0,5.036,0h5.052a1.585,1.585,0,0,1,1.03.321,1.46,1.46,0,0,1,.563,1.069c0,.058.006.117.006.176q0,4.531,0,9.064a1.5,1.5,0,0,1-.6,1.275ZM78.975,96.19a1.467,1.467,0,0,1-.606-1.227q0-4.58,0-9.16a1.454,1.454,0,0,1,1.14-1.468,1.869,1.869,0,0,1,.459-.048q5.052,0,10.1,0a1.458,1.458,0,0,1,1.439.843,1.664,1.664,0,0,1,.152.676q.014,4.58,0,9.16a1.451,1.451,0,0,1-1.123,1.464,1.894,1.894,0,0,1-.49.052q-2.517.006-5.035,0H79.967a1.594,1.594,0,0,1-.992-.293ZM90.563,103.9a8.081,8.081,0,0,1-3.381,6.662,7.83,7.83,0,0,1-5.421,1.372v-3.225c.314,0,.622.012.929,0a6.956,6.956,0,0,0,1.047-.092,4.534,4.534,0,0,0,3-2.082,4.861,4.861,0,0,0,.769-2.619H85.13l4.044-4.725,4.032,4.712H90.563Z" transform="translate(-64.23 -84.286)" fill="#343434"/>
</svg>
