<svg xmlns="http://www.w3.org/2000/svg" width="29.305" height="29.314" viewBox="0 0 29.305 29.314">
  <path id="基础数据库" d="M81.839,64.6H75.165A1.754,1.754,0,0,0,73.5,66.43v25.6a1.754,1.754,0,0,0,1.669,1.83h6.674a1.754,1.754,0,0,0,1.669-1.83V66.43A1.754,1.754,0,0,0,81.839,64.6ZM80.169,90.2H76.831V88.376h3.335Zm0-3.659H76.831v-1.83h3.335Zm0-3.656H76.831v-1.83h3.335Zm0-3.656H76.831V77.4h3.335ZM69.7,75.863H65.545a1.792,1.792,0,0,0-1.7,1.853v14.33a1.791,1.791,0,0,0,1.7,1.866H69.7a1.794,1.794,0,0,0,1.7-1.859V77.725A1.8,1.8,0,0,0,69.7,75.863ZM87.3,72.217a1.794,1.794,0,0,0-1.7,1.859V92.068a1.8,1.8,0,0,0,1.7,1.846h4.154a1.791,1.791,0,0,0,1.692-1.859V74.063a1.772,1.772,0,0,0-1.7-1.846H87.3Z" transform="translate(-63.848 -64.6)" fill="#343434"/>
</svg>
