<svg xmlns="http://www.w3.org/2000/svg" width="30.092" height="30.091" viewBox="0 0 30.092 30.091">
  <path id="大数据平台" d="M94.679,82.2a15.045,15.045,0,1,0,15.045,15.045A15.046,15.046,0,0,0,94.679,82.2Zm-4.5,22.421a.614.614,0,0,1-.609.612H86.515a.615.615,0,0,1-.612-.612V98.177a.615.615,0,0,1,.612-.612h3.056a.613.613,0,0,1,.609.612v6.446Zm6.2,0a.616.616,0,0,1-.615.612H92.715a.613.613,0,0,1-.612-.612v-11a.613.613,0,0,1,.612-.609h3.053a.615.615,0,0,1,.615.609v11Zm6.2,0a.615.615,0,0,1-.612.612H98.914a.615.615,0,0,1-.612-.612V88.885a.613.613,0,0,1,.612-.609h3.053a.613.613,0,0,1,.612.609v15.739Z" transform="translate(-79.633 -82.203)" fill="#343434"/>
</svg>
