<svg xmlns="http://www.w3.org/2000/svg" width="28.168" height="28.168" viewBox="0 0 28.168 28.168">
  <path id="数据开放网站" d="M14.084,0A14.084,14.084,0,1,0,28.168,14.084,14.125,14.125,0,0,0,14.084,0Zm1.232,1.056S16.2.528,16.549.88s1.408,0,4.225,1.584c0,0-.528.7-.7.528,0,.176.352.528.528.88l.176.352-.176.352h.176c-.176,0-.352.528-.528.7-.352.176.176.7,0,.7-.176.176,0,1.056,0,1.584s-.176,0-.528,0c-.176,0-.7-.176-.7-.352s-.176-.528,0-.88c.176-.176-.352-.528-.528-.7s-1.056,0-1.232,0-.352-.528-.352-.88.7,0,1.056,0,.528-1.056.528-1.056v-.88c-.176,0-.176-.176,0-.176,0,0-.88-.176-1.056.176s-.352.352-.352.7c0,.528-.88,0-1.056,0s-.7-.528-.7-.528a1.363,1.363,0,0,0,.176-.528l-.176-.7ZM7.218,5.81c0-.176.7-1.056,1.408-.88a1.033,1.033,0,0,0,1.232-.352s.88-1.056,1.056-.88v.176c0-.176.88-.352,1.056.176a1.2,1.2,0,0,0,.7.7,2.232,2.232,0,0,0-.352,1.056c.176.528.528.528.176,1.056,0,.352-.528.352-.528.7-.176.176-1.056-.7-1.056-1.056a.968.968,0,0,0-.88-.528,7.748,7.748,0,0,1-1.76.352C8.1,6.162,7.042,6.162,7.218,5.81ZM20.95,20.774a9.853,9.853,0,0,1-1.937,3.345,15.872,15.872,0,0,1-1.584,1.76c-.528.352-.528,1.056-1.056,1.056s-1.232-1.584-1.056-2.113c.176-.352-2.817-1.056-2.817-1.056s-1.232-.176-1.584-2.641a1.319,1.319,0,0,0-.176-.88c-.352-.176-1.937-.88-2.817-.528-.88.176-1.232-.352-2.113-.528L4.225,17.781S1.584,14.788,1.937,14.26a5.594,5.594,0,0,0,.352-2.289c0-.352-.352-2.289-.352-2.465a11.219,11.219,0,0,0-.352-1.232L2.641,6.162s.7,1.76,1.232,1.76,2.113,0,2.289-.352c.352,0,.528-.352.88-.352s.176-.176.7,0A2.588,2.588,0,0,1,8.8,8.1c.176.352-.176.88.88.88s1.232-.176,1.408.528.352,2.289-.176,2.465a4.111,4.111,0,0,0-1.76,2.113,2.083,2.083,0,0,1-.176,1.76c0,.352-.176.528-1.056.528-.7-.176-1.408-.528-1.584,0-.176.7-.7,1.937.176,1.937,0,0,1.056-.352,1.584,0a21.41,21.41,0,0,0,2.993,1.408,4.994,4.994,0,0,1,5.986-.88l.528.352,1.056-.176a15.25,15.25,0,0,1,1.76-.352l.528.176v-.176A3.718,3.718,0,0,1,20.95,20.774Zm5.986-5.81a2.166,2.166,0,0,1-.352-.88c0-.528-.352-.352-.352-1.056,0-.528-.528-.352-.7-.88-.352-.352-.528.176-.7.176s-.176.528-.528.88a1.582,1.582,0,0,1-1.056.88c-.176-.176-1.056-.7-1.056-.88s-1.056-1.056-1.056-1.232a16.291,16.291,0,0,0-.528-1.76,11.239,11.239,0,0,1,0-2.465c-.352-.176,2.817-1.408,2.465-1.584s-.528-1.76-.528-1.76l1.408.7c1.408.7,3.345,6.866,3.345,6.866v1.76l-.352,1.232Z" fill="#343434"/>
</svg>
