<svg xmlns="http://www.w3.org/2000/svg" width="26.666" height="26.667" viewBox="0 0 26.666 26.667">
  <g id="我的待办" transform="translate(-0.065 0)">
    <path id="路径_435" data-name="路径 435" d="M23.866,2.482H19.285V.925a.925.925,0,0,0-1.851,0V2.482H9.361V.925a.925.925,0,1,0-1.851,0V2.482H2.927A2.867,2.867,0,0,0,.065,5.345V23.8a2.867,2.867,0,0,0,2.864,2.864H23.866A2.867,2.867,0,0,0,26.73,23.8V5.345A2.867,2.867,0,0,0,23.866,2.482ZM24.879,23.8a1.015,1.015,0,0,1-1.013,1.013H2.927A1.015,1.015,0,0,1,1.915,23.8V5.345A1.015,1.015,0,0,1,2.929,4.332H23.866a1.015,1.015,0,0,1,1.013,1.013Z" transform="translate(0)" fill="#008df7"/>
    <path id="路径_436" data-name="路径 436" d="M307.6,400.251l-6.516,6.387-3.578-3.578a.925.925,0,1,0-1.309,1.309l3.645,3.645a1.76,1.76,0,0,0,2.469.012l6.584-6.453a.925.925,0,1,0-1.3-1.322Z" transform="translate(-288.159 -389.571)" fill="#008df7"/>
  </g>
</svg>
