<svg xmlns="http://www.w3.org/2000/svg" width="27.502" height="27.5" viewBox="0 0 27.502 27.5">
  <path id="统计报表" d="M60.061,52.117l-.611.306A13.705,13.705,0,0,0,64.95,78.7a13.613,13.613,0,0,0,12.681-8.556.15.15,0,0,1,.153-.153.966.966,0,1,0-1.833-.611.15.15,0,0,1-.153.153A11.643,11.643,0,0,1,64.95,76.714a11.719,11.719,0,0,1-4.736-22.459c.153-.153.153-.153.306-.153.611-.306.917-.917.611-1.375,0-.611-.611-.764-1.069-.611ZM66.02,63.881H76.714A11.757,11.757,0,0,0,66.02,53.186ZM64.95,51.2A13.79,13.79,0,0,1,78.7,64.95a.881.881,0,0,1-.917.917H64.95a.881.881,0,0,1-.917-.917V52.117A.881.881,0,0,1,64.95,51.2Z" transform="translate(-51.2 -51.2)" fill="#008df7"/>
</svg>
