<svg xmlns="http://www.w3.org/2000/svg" width="27.666" height="27.666" viewBox="0 0 27.666 27.666">
  <g id="通讯录" transform="translate(0)">
    <path id="路径_412" data-name="路径 412" d="M1.153,226.593H5.879a1.155,1.155,0,0,0,1.153-1.153v-.231a1.226,1.226,0,0,0-1.153-1.037H1.153A1.155,1.155,0,0,0,0,225.325v.115A1.155,1.155,0,0,0,1.153,226.593Zm0,4.265H5.879a1.155,1.155,0,0,0,1.153-1.153,1.235,1.235,0,0,0-1.153-1.153H1.153a1.153,1.153,0,0,0,0,2.306ZM7.032,234.2v-.115a1.344,1.344,0,0,0-1.153-1.153H1.153A1.155,1.155,0,0,0,0,234.086v.115a1.155,1.155,0,0,0,1.153,1.153H5.879A1.155,1.155,0,0,0,7.032,234.2Zm2.19,2.421a1.037,1.037,0,0,0,2.075,0,4.842,4.842,0,1,1,9.683,0,1.037,1.037,0,0,0,2.075,0,6.706,6.706,0,0,0-3.458-6.11,4.794,4.794,0,0,0,1.614-3.689,4.994,4.994,0,0,0-4.957-4.957,5.1,5.1,0,0,0-5.072,4.957,5.221,5.221,0,0,0,1.614,3.689,6.8,6.8,0,0,0-3.574,6.11Zm7.032-12.8a3.008,3.008,0,0,1,2.882,2.882,2.882,2.882,0,1,1-2.882-2.882Z" transform="translate(0 -215.873)" fill="#008df7"/>
    <path id="路径_413" data-name="路径 413" d="M108.388,0H87.639a2.312,2.312,0,0,0-2.306,2.306V5.764h2.306V2.306h20.75V25.361H87.639V21.9H85.333v3.458a2.312,2.312,0,0,0,2.306,2.306h20.75a2.312,2.312,0,0,0,2.306-2.306V2.306A2.312,2.312,0,0,0,108.388,0Z" transform="translate(-83.028)" fill="#008df7"/>
  </g>
</svg>
