<svg xmlns="http://www.w3.org/2000/svg" width="26.084" height="32.441" viewBox="0 0 26.084 32.441">
  <path id="信息安全与支撑平台" d="M166.56,55.791l-11.981-4.083a1.943,1.943,0,0,0-1.065,0l-11.981,4.083a.846.846,0,0,0-.533.748V73.547a1.324,1.324,0,0,0,.445.913l12.153,9.47a.728.728,0,0,0,.445.145.72.72,0,0,0,.444-.145l12.154-9.47a1.312,1.312,0,0,0,.445-.913V56.538a.833.833,0,0,0-.526-.748Zm-6.078,6.022-7.5,10.32a.567.567,0,0,1-.917,0L147.612,66a.283.283,0,0,1,.229-.448h1.946a.573.573,0,0,1,.458.232l2.281,3.138,5.321-7.327a.567.567,0,0,1,.458-.233h1.946a.286.286,0,0,1,.229.452Z" transform="translate(-141.002 -51.634)" fill="#fff"/>
</svg>
