<svg xmlns="http://www.w3.org/2000/svg" width="30.934" height="30.934" viewBox="0 0 30.934 30.934">
  <path id="共享网站" d="M79.467,64A15.467,15.467,0,1,0,94.934,79.467,15.468,15.468,0,0,0,79.467,64Zm5.362,12.415a2.812,2.812,0,0,1-1.906-.753l-4.485,2.593a3.545,3.545,0,0,1-.5,2.752l2.648,2.648a2.813,2.813,0,1,1-1.4,2.424,2.838,2.838,0,0,1,.207-1.056l-2.8-2.8A3.617,3.617,0,1,1,77.6,76.646l4.45-2.572a2.723,2.723,0,0,1-.048-.48,2.821,2.821,0,1,1,2.824,2.821Z" transform="translate(-64 -64)" fill="#fff"/>
</svg>
