<svg xmlns="http://www.w3.org/2000/svg" width="31.037" height="31.038" viewBox="0 0 31.037 31.038">
  <g id="审计日志系统" transform="translate(-66.076 -63.35)">
    <path id="路径_425" data-name="路径 425" d="M81.595,63.35A15.519,15.519,0,1,0,97.114,78.869,15.519,15.519,0,0,0,81.595,63.35Zm9.659,25.412H88.33V87.3H82.874v2.741a11.3,11.3,0,0,0,.183,2.48H79.9a15.629,15.629,0,0,0,.157-2.48V87.3H74.833v1.462h-2.9a20.993,20.993,0,0,0,.131-2.689V78.215a18.146,18.146,0,0,0-.131-2.48c1.044.052,1.592.078,2.663.078h5.456V75.5a7.028,7.028,0,0,0-.157-1.906h3.159a6.785,6.785,0,0,0-.183,1.827v.392h5.613c1.227,0,1.723-.026,2.767-.078a17.7,17.7,0,0,0-.131,2.454v7.884A20.12,20.12,0,0,0,91.254,88.762ZM90.105,75.056V72.863H73.11v2.193h-2.9a13.563,13.563,0,0,0,.1-1.958v-.94a13.872,13.872,0,0,0-.1-1.932,28.46,28.46,0,0,0,2.872.1h6.526a10.31,10.31,0,0,0-.861-1.384l2.976-1.07A17.415,17.415,0,0,1,83,70.331h7.127a28.46,28.46,0,0,0,2.872-.1,13.4,13.4,0,0,0-.1,1.932v.966a14.366,14.366,0,0,0,.1,1.932h-2.9Z" fill="#fff"/>
    <path id="路径_426" data-name="路径 426" d="M299.5,578.56h5.221v2.323H299.5Z" transform="translate(-224.667 -495.881)" fill="#fff"/>
    <path id="路径_427" data-name="路径 427" d="M299.5,459.572h5.221v2.193H299.5Z" transform="translate(-224.667 -381.357)" fill="#fff"/>
    <path id="路径_428" data-name="路径 428" d="M513.819,578.56h5.456v2.323h-5.456Z" transform="translate(-430.945 -495.881)" fill="#fff"/>
    <path id="路径_429" data-name="路径 429" d="M513.819,459.572h5.456v2.193h-5.456Z" transform="translate(-430.945 -381.357)" fill="#fff"/>
  </g>
</svg>
