<svg xmlns="http://www.w3.org/2000/svg" width="29.67" height="24.22" viewBox="0 0 29.67 24.22">
  <g id="微服务平台" transform="translate(-100.57 -146.286)">
    <path id="路径_423" data-name="路径 423" d="M309.525,150.89v-2.182a2.422,2.422,0,0,0-2.422-2.422h-12.11a2.422,2.422,0,0,0-2.422,2.422v2.361m0,12.282v4.733a2.422,2.422,0,0,0,2.422,2.422H307.1a2.422,2.422,0,0,0,2.422-2.422v-4.757m-9.688,4.757a1.211,1.211,0,1,1,1.211,1.211A1.211,1.211,0,0,1,299.837,168.085Zm7.266-4.844v2.422h-12.11v-2.286m0-12.407v-2.261H307.1v2.279" transform="translate(-185.642)" fill="#fff"/>
    <path id="路径_424" data-name="路径 424" d="M103.3,283.429h24.22a2.725,2.725,0,0,1,2.725,2.725v7.266a2.725,2.725,0,0,1-2.725,2.725H103.3a2.725,2.725,0,0,1-2.725-2.725v-7.266a2.725,2.725,0,0,1,2.725-2.725Zm5.865,10.9h2.289l-2.864-8.78h-3.023l-2.865,8.78h2.158l.488-1.867h3.33l.487,1.867Zm-2.41-7.22h.517l1.064,4.015h-2.647l1.066-4.015Zm6.263-1.56v8.78h2.153v-2.562h1.642a3.048,3.048,0,0,0,3.379-3.1,2.951,2.951,0,0,0-3.19-3.117Zm2.153,1.469h1.1a1.662,1.662,0,1,1-.019,3.318h-1.078v-3.318Zm6.6-1.469v8.78h2.152v-2.562h1.643a3.048,3.048,0,0,0,3.379-3.1,2.952,2.952,0,0,0-3.191-3.117H121.77Zm2.152,1.469h1.1a1.662,1.662,0,1,1-.019,3.318h-1.077Z" transform="translate(0 -132.602)" fill="#fff"/>
  </g>
</svg>
