<svg xmlns="http://www.w3.org/2000/svg" width="30.418" height="25.997" viewBox="0 0 30.418 25.997">
  <path id="菜单展开" d="M66.932,115.592H49.289a1.668,1.668,0,0,1,0-3.323H66.932a1.668,1.668,0,0,1,0,3.323Zm0-7.744H49.289a1.668,1.668,0,0,1,0-3.323H66.932a1.668,1.668,0,0,1,0,3.323Zm-.115-7.468H39.8a1.707,1.707,0,0,1-1.739-1.6,1.662,1.662,0,0,1,1.662-1.719H66.739a1.707,1.707,0,0,1,1.739,1.6,1.655,1.655,0,0,1-1.662,1.713ZM38.062,115.566V104.557l7.7,5.5Zm1.662,4.177H66.739a1.707,1.707,0,0,1,1.739,1.6,1.662,1.662,0,0,1-1.662,1.719H39.8a1.707,1.707,0,0,1-1.739-1.6,1.655,1.655,0,0,1,1.662-1.713Z" transform="translate(-38.061 -97.064)" fill="#fff"/>
</svg>
