<svg xmlns="http://www.w3.org/2000/svg" width="27.975" height="27.472" viewBox="0 0 27.975 27.472">
  <path id="集成门户" d="M79.667,51.98H69.3a1.037,1.037,0,0,0-1.036,1.036V63.38A1.037,1.037,0,0,0,69.3,64.416H79.667A1.037,1.037,0,0,0,80.7,63.38V53.016A1.037,1.037,0,0,0,79.667,51.98Zm0,13.991H69.3a1.037,1.037,0,0,0-1.036,1.036V77.371A1.037,1.037,0,0,0,69.3,78.407H79.667A1.037,1.037,0,0,0,80.7,77.371V67.007A1.037,1.037,0,0,0,79.667,65.971Zm16.312-8.415L89.623,51.2a.9.9,0,0,0-1.271,0l-6.357,6.357a.9.9,0,0,0,0,1.271l6.357,6.356a.9.9,0,0,0,1.271,0l6.357-6.357A.9.9,0,0,0,95.979,57.556Zm-2,1.091-4.54,4.54a.642.642,0,0,1-.908,0l-4.54-4.54a.642.642,0,0,1,0-.908l4.54-4.54a.642.642,0,0,1,.908,0l4.54,4.54A.642.642,0,0,1,93.983,58.647Zm.193,7.324H83.812a1.037,1.037,0,0,0-1.036,1.036V77.371a1.037,1.037,0,0,0,1.036,1.036H94.176a1.037,1.037,0,0,0,1.036-1.036V67.007A1.037,1.037,0,0,0,94.176,65.971Z" transform="translate(-68.268 -50.936)" fill="#fff"/>
</svg>
